<!-- <svg xmlns="http://www.w3.org/2000/svg" viewBox="0 0 384 512">! Font Awesome Pro 6.2.0 by @fontawesome - https://fontawesome.com License - https://fontawesome.com/license (Commercial License) Copyright 2022 Fonticons, Inc.<path d="M32 32C32 14.3 46.3 0 64 0H320c17.7 0 32 14.3 32 32s-14.3 32-32 32H290.5l11.4 148.2c36.7 19.9 65.7 53.2 79.5 94.7l1 3c3.3 9.8 1.6 20.5-4.4 28.8s-15.7 13.3-26 13.3H32c-10.3 0-19.9-4.9-26-13.3s-7.7-19.1-4.4-28.8l1-3c13.8-41.5 42.8-74.8 79.5-94.7L93.5 64H64C46.3 64 32 49.7 32 32zM160 384h64v96c0 17.7-14.3 32-32 32s-32-14.3-32-32V384z"/></svg> -->

<svg xmlns="http://www.w3.org/2000/svg" width="24" height="24" viewBox="0 0 24 24">
  <path fill="none" d="M0 0h24v24H0z"/>
  <path fill="#000" d="M17 4v7l2 3v2h-6v5l-1 1-1-1v-5H5v-2l2-3V4c0-1.1.9-2 2-2h6c1.11 0 2 .89 2 2zM9 4v7.75L7.5 14h9L15 11.75V4H9z"/>
</svg>